<?xml version="1.0" encoding="UTF-8" standalone="no"?>
<!DOCTYPE svg PUBLIC "-//W3C//DTD SVG 1.1//EN"
 "http://www.w3.org/Graphics/SVG/1.1/DTD/svg11.dtd">
<!-- Generated by graphviz version 14.1.5 (20260411.2331)
 -->
<!-- Title: ArcpProjects Pages: 1 -->
<svg width="657pt" height="462pt"
 viewBox="0.00 0.00 657.00 462.00" xmlns="http://www.w3.org/2000/svg" xmlns:xlink="http://www.w3.org/1999/xlink">
<g id="graph0" class="graph" transform="scale(1 1) rotate(0) translate(25.2 444)">
<title>ArcpProjects</title>
<g id="clust1" class="cluster">
<title>cluster_src</title>
<path fill="#f1f5f9" stroke="#e2e8f0" d="M20,-111C20,-111 586.79,-111 586.79,-111 592.79,-111 598.79,-117 598.79,-123 598.79,-123 598.79,-364 598.79,-364 598.79,-370 592.79,-376 586.79,-376 586.79,-376 20,-376 20,-376 14,-376 8,-370 8,-364 8,-364 8,-123 8,-123 8,-117 14,-111 20,-111"/>
<text xml:space="preserve" text-anchor="start" x="24" y="-353.6" font-family="TT Commons Pro Trial" font-weight="bold" font-size="12.00" fill="#475569">src</text>
</g>
<g id="clust2" class="cluster">
<title>cluster_samples</title>
<path fill="#f8fafc" stroke="#e2e8f0" d="M34.25,-8C34.25,-8 122.43,-8 122.43,-8 128.43,-8 134.43,-14 134.43,-20 134.43,-20 134.43,-91 134.43,-91 134.43,-97 128.43,-103 122.43,-103 122.43,-103 34.25,-103 34.25,-103 28.25,-103 22.25,-97 22.25,-91 22.25,-91 22.25,-20 22.25,-20 22.25,-14 28.25,-8 34.25,-8"/>
<text xml:space="preserve" text-anchor="start" x="38.25" y="-80.6" font-family="TT Commons Pro Trial" font-weight="bold" font-size="12.00" fill="#475569">samples</text>
</g>
<g id="clust3" class="cluster">
<title>cluster_tests</title>
<path fill="#f8fafc" stroke="#e2e8f0" d="M175.68,-8C175.68,-8 459.61,-8 459.61,-8 465.61,-8 471.61,-14 471.61,-20 471.61,-20 471.61,-91 471.61,-91 471.61,-97 465.61,-103 459.61,-103 459.61,-103 175.68,-103 175.68,-103 169.68,-103 163.68,-97 163.68,-91 163.68,-91 163.68,-20 163.68,-20 163.68,-14 169.68,-8 175.68,-8"/>
<text xml:space="preserve" text-anchor="start" x="179.68" y="-80.6" font-family="TT Commons Pro Trial" font-weight="bold" font-size="12.00" fill="#475569">tests</text>
</g>
<!-- Arcp -->
<g id="node1" class="node">
<title>Arcp</title>
<path fill="#3b82f6" stroke="#2563eb" stroke-width="1.4" d="M94.56,-426C94.56,-426 62.13,-426 62.13,-426 56.13,-426 50.13,-420 50.13,-414 50.13,-414 50.13,-402 50.13,-402 50.13,-396 56.13,-390 62.13,-390 62.13,-390 94.56,-390 94.56,-390 100.56,-390 106.56,-396 106.56,-402 106.56,-402 106.56,-414 106.56,-414 106.56,-420 100.56,-426 94.56,-426"/>
<text xml:space="preserve" text-anchor="start" x="65.97" y="-405.1" font-family="TT Commons Pro Trial" font-weight="bold" font-size="12.00" fill="white">Arcp</text>
</g>
<!-- Client -->
<g id="node3" class="node">
<title>Client</title>
<path fill="white" stroke="#cbd5e1" d="M347.36,-331C347.36,-331 287.93,-331 287.93,-331 281.93,-331 275.93,-325 275.93,-319 275.93,-319 275.93,-307 275.93,-307 275.93,-301 281.93,-295 287.93,-295 287.93,-295 347.36,-295 347.36,-295 353.36,-295 359.36,-301 359.36,-307 359.36,-307 359.36,-319 359.36,-319 359.36,-325 353.36,-331 347.36,-331"/>
<text xml:space="preserve" text-anchor="middle" x="317.65" y="-309.68" font-family="TT Commons Pro Trial" font-size="11.00" fill="#1f2937">Arcp.Client</text>
</g>
<!-- Arcp&#45;&gt;Client -->
<g id="edge1" class="edge">
<title>Arcp&#45;&gt;Client</title>
<path fill="none" stroke="#64748b" stroke-width="1.2" d="M107.03,-396.92C146.32,-381.19 218.89,-352.14 267.46,-332.69"/>
<polygon fill="#64748b" stroke="#64748b" stroke-width="1.2" points="274.29,-329.96 268.58,-335.88 272.2,-330.9 267.36,-332.84 267.32,-332.74 267.29,-332.65 272.13,-330.71 266.07,-329.61 274.29,-329.96"/>
</g>
<!-- Runtime -->
<g id="node4" class="node">
<title>Runtime</title>
<path fill="white" stroke="#cbd5e1" d="M353.36,-161C353.36,-161 281.93,-161 281.93,-161 275.93,-161 269.93,-155 269.93,-149 269.93,-149 269.93,-137 269.93,-137 269.93,-131 275.93,-125 281.93,-125 281.93,-125 353.36,-125 353.36,-125 359.36,-125 365.36,-131 365.36,-137 365.36,-137 365.36,-149 365.36,-149 365.36,-155 359.36,-161 353.36,-161"/>
<text xml:space="preserve" text-anchor="middle" x="317.65" y="-139.68" font-family="TT Commons Pro Trial" font-size="11.00" fill="#1f2937">Arcp.Runtime</text>
</g>
<!-- Arcp&#45;&gt;Runtime -->
<g id="edge2" class="edge">
<title>Arcp&#45;&gt;Runtime</title>
<path fill="none" stroke="#64748b" stroke-width="1.2" d="M107.15,-402.04C117.32,-398.47 127.96,-392.83 134.68,-384 190.93,-310.07 100.65,-245.25 163.68,-177 188.08,-150.58 228.06,-142.38 261.03,-140.63"/>
<polygon fill="#64748b" stroke="#64748b" stroke-width="1.2" points="268.23,-140.36 260.86,-144.01 265.95,-140.54 260.74,-140.74 260.73,-140.64 260.73,-140.54 265.94,-140.34 260.61,-137.27 268.23,-140.36"/>
</g>
<!-- Core -->
<g id="node2" class="node">
<title>Core</title>
<path fill="#f59e0b" stroke="#d97706" stroke-width="1.4" d="M572.79,-229C572.79,-229 512.61,-229 512.61,-229 506.61,-229 500.61,-223 500.61,-217 500.61,-217 500.61,-205 500.61,-205 500.61,-199 506.61,-193 512.61,-193 512.61,-193 572.79,-193 572.79,-193 578.79,-193 584.79,-199 584.79,-205 584.79,-205 584.79,-217 584.79,-217 584.79,-223 578.79,-229 572.79,-229"/>
<text xml:space="preserve" text-anchor="start" x="516.45" y="-208.1" font-family="TT Commons Pro Trial" font-weight="bold" font-size="12.00" fill="white">Arcp.Core</text>
</g>
<!-- Client&#45;&gt;Core -->
<g id="edge3" class="edge">
<title>Client&#45;&gt;Core</title>
<path fill="none" stroke="#cbd5e1" d="M359.76,-306.78C391.64,-300.79 436.22,-289.79 471.61,-271 489,-261.77 505.84,-247.58 518.66,-235.31"/>
<polygon fill="#cbd5e1" stroke="#cbd5e1" points="523.74,-230.33 520.75,-237.99 521.94,-232.1 518.39,-235.58 518.39,-235.58 518.39,-235.58 521.94,-232.1 516.02,-233.17 523.74,-230.33"/>
</g>
<!-- Runtime&#45;&gt;Core -->
<g id="edge4" class="edge">
<title>Runtime&#45;&gt;Core</title>
<path fill="none" stroke="#cbd5e1" d="M365.62,-150.51C396.29,-156.12 436.93,-164.92 471.61,-177 480.9,-180.23 490.56,-184.37 499.64,-188.64"/>
<polygon fill="#cbd5e1" stroke="#cbd5e1" points="506.35,-191.88 498.12,-191.66 504.07,-190.78 499.59,-188.62 499.59,-188.62 499.59,-188.62 504.07,-190.78 501.06,-185.58 506.35,-191.88"/>
</g>
<!-- AspNetCore -->
<g id="node5" class="node">
<title>AspNetCore</title>
<path fill="white" stroke="#cbd5e1" d="M122.68,-254C122.68,-254 34,-254 34,-254 28,-254 22,-248 22,-242 22,-242 22,-230 22,-230 22,-224 28,-218 34,-218 34,-218 122.68,-218 122.68,-218 128.68,-218 134.68,-224 134.68,-230 134.68,-230 134.68,-242 134.68,-242 134.68,-248 128.68,-254 122.68,-254"/>
<text xml:space="preserve" text-anchor="middle" x="78.34" y="-232.68" font-family="TT Commons Pro Trial" font-size="11.00" fill="#1f2937">Arcp.AspNetCore</text>
</g>
<!-- AspNetCore&#45;&gt;Core -->
<g id="edge6" class="edge">
<title>AspNetCore&#45;&gt;Core</title>
<path fill="none" stroke="#cbd5e1" d="M135.11,-245.8C211.96,-257.4 354.26,-271.96 471.61,-245 482.32,-242.54 493.3,-238.21 503.29,-233.46"/>
<polygon fill="#cbd5e1" stroke="#cbd5e1" points="509.98,-230.12 504.77,-236.49 507.71,-231.25 503.27,-233.47 503.27,-233.47 503.27,-233.47 507.71,-231.25 501.76,-230.45 509.98,-230.12"/>
</g>
<!-- AspNetCore&#45;&gt;Runtime -->
<g id="edge5" class="edge">
<title>AspNetCore&#45;&gt;Runtime</title>
<path fill="none" stroke="#cbd5e1" d="M100.46,-217.68C116.72,-204.5 140.29,-187.29 163.68,-177 194.5,-163.44 231.28,-155.04 261.05,-149.99"/>
<polygon fill="#cbd5e1" stroke="#cbd5e1" points="268.44,-148.78 261.58,-153.32 265.94,-149.19 261.04,-149.99 261.04,-149.99 261.04,-149.99 265.94,-149.19 260.5,-146.66 268.44,-148.78"/>
</g>
<!-- Otel -->
<g id="node6" class="node">
<title>Otel</title>
<path fill="white" stroke="#cbd5e1" d="M343.61,-229C343.61,-229 291.68,-229 291.68,-229 285.68,-229 279.68,-223 279.68,-217 279.68,-217 279.68,-205 279.68,-205 279.68,-199 285.68,-193 291.68,-193 291.68,-193 343.61,-193 343.61,-193 349.61,-193 355.61,-199 355.61,-205 355.61,-205 355.61,-217 355.61,-217 355.61,-223 349.61,-229 343.61,-229"/>
<text xml:space="preserve" text-anchor="middle" x="317.65" y="-207.68" font-family="TT Commons Pro Trial" font-size="11.00" fill="#1f2937">Arcp.Otel</text>
</g>
<!-- Otel&#45;&gt;Core -->
<g id="edge7" class="edge">
<title>Otel&#45;&gt;Core</title>
<path fill="none" stroke="#cbd5e1" d="M355.98,-211C393.15,-211 450.43,-211 491.55,-211"/>
<polygon fill="#cbd5e1" stroke="#cbd5e1" points="498.85,-211 491.35,-214.38 496.32,-211 491.35,-211 491.35,-211 491.35,-211 496.32,-211 491.35,-207.63 498.85,-211"/>
</g>
<!-- Hosting -->
<g id="node7" class="node">
<title>Hosting</title>
<path fill="white" stroke="#cbd5e1" d="M112.18,-161C112.18,-161 44.5,-161 44.5,-161 38.5,-161 32.5,-155 32.5,-149 32.5,-149 32.5,-137 32.5,-137 32.5,-131 38.5,-125 44.5,-125 44.5,-125 112.18,-125 112.18,-125 118.18,-125 124.18,-131 124.18,-137 124.18,-137 124.18,-149 124.18,-149 124.18,-155 118.18,-161 112.18,-161"/>
<text xml:space="preserve" text-anchor="middle" x="78.34" y="-139.68" font-family="TT Commons Pro Trial" font-size="11.00" fill="#1f2937">Arcp.Hosting</text>
</g>
<!-- Hosting&#45;&gt;Runtime -->
<g id="edge8" class="edge">
<title>Hosting&#45;&gt;Runtime</title>
<path fill="none" stroke="#cbd5e1" d="M124.53,-143C163.33,-143 219.39,-143 260.95,-143"/>
<polygon fill="#cbd5e1" stroke="#cbd5e1" points="268.37,-143 260.87,-146.38 265.84,-143 260.87,-143 260.87,-143 260.87,-143 265.84,-143 260.87,-139.63 268.37,-143"/>
</g>
<!-- Samples -->
<g id="node8" class="node">
<title>Samples</title>
<path fill="white" stroke="#cbd5e1" d="M108.43,-58C108.43,-58 48.25,-58 48.25,-58 42.25,-58 36.25,-52 36.25,-46 36.25,-46 36.25,-34 36.25,-34 36.25,-28 42.25,-22 48.25,-22 48.25,-22 108.43,-22 108.43,-22 114.43,-22 120.43,-28 120.43,-34 120.43,-34 120.43,-46 120.43,-46 120.43,-52 114.43,-58 108.43,-58"/>
<text xml:space="preserve" text-anchor="middle" x="78.34" y="-36.67" font-family="TT Commons Pro Trial" font-size="11.00" fill="#1f2937">20 samples</text>
</g>
<!-- Samples&#45;&gt;Client -->
<g id="edge9" class="edge">
<title>Samples&#45;&gt;Client</title>
<path fill="none" stroke="#cbd5e1" d="M100.24,-58.44C112.12,-70.07 126.26,-86.05 134.68,-103 163.34,-160.69 123.33,-194.79 163.68,-245 189.38,-276.98 233.26,-294.37 267.45,-303.53"/>
<polygon fill="#cbd5e1" stroke="#cbd5e1" points="274.29,-305.28 266.19,-306.7 271.83,-304.65 267.02,-303.43 267.02,-303.43 267.02,-303.43 271.83,-304.65 267.86,-300.16 274.29,-305.28"/>
</g>
<!-- Samples&#45;&gt;Runtime -->
<g id="edge10" class="edge">
<title>Samples&#45;&gt;Runtime</title>
<path fill="none" stroke="#cbd5e1" d="M95.91,-58.37C111.71,-74.73 137.01,-98.02 163.68,-111 194.12,-125.81 231.22,-133.79 261.26,-138.07"/>
<polygon fill="#cbd5e1" stroke="#cbd5e1" points="268.33,-139.02 260.45,-141.37 265.82,-138.69 260.9,-138.02 260.9,-138.02 260.9,-138.02 265.82,-138.69 261.35,-134.68 268.33,-139.02"/>
</g>
<!-- Tests -->
<g id="node9" class="node">
<title>Tests</title>
<path fill="white" stroke="#cbd5e1" d="M445.61,-58C445.61,-58 189.68,-58 189.68,-58 183.68,-58 177.68,-52 177.68,-46 177.68,-46 177.68,-34 177.68,-34 177.68,-28 183.68,-22 189.68,-22 189.68,-22 445.61,-22 445.61,-22 451.61,-22 457.61,-28 457.61,-34 457.61,-34 457.61,-46 457.61,-46 457.61,-52 451.61,-58 445.61,-58"/>
<text xml:space="preserve" text-anchor="middle" x="317.65" y="-36.67" font-family="TT Commons Pro Trial" font-size="11.00" fill="#1f2937">Unit + Integration + Conformance + AspNetCore tests</text>
</g>
<!-- Tests&#45;&gt;Core -->
<g id="edge11" class="edge">
<title>Tests&#45;&gt;Core</title>
<path fill="none" stroke="#cbd5e1" d="M387.44,-58.41C415.64,-68.35 447.3,-82.82 471.61,-103 498.49,-125.32 518.68,-160.65 530.33,-184.78"/>
<polygon fill="#cbd5e1" stroke="#cbd5e1" points="533.43,-191.4 527.19,-186.04 532.35,-189.11 530.24,-184.61 530.24,-184.61 530.24,-184.61 532.35,-189.11 533.3,-183.18 533.43,-191.4"/>
</g>
</g>
</svg>
