<?xml version="1.0" encoding="UTF-8" standalone="no"?>
<!DOCTYPE svg PUBLIC "-//W3C//DTD SVG 1.1//EN"
 "http://www.w3.org/Graphics/SVG/1.1/DTD/svg11.dtd">
<!-- Generated by graphviz version 14.1.5 (20260411.2331)
 -->
<!-- Title: ArcpProjects Pages: 1 -->
<svg width="429pt" height="301pt"
 viewBox="0.00 0.00 429.00 301.00" xmlns="http://www.w3.org/2000/svg" xmlns:xlink="http://www.w3.org/1999/xlink">
<g id="graph0" class="graph" transform="scale(1 1) rotate(0) translate(25.2 283.45)">
<title>ArcpProjects</title>
<!-- Arcp -->
<g id="node1" class="node">
<title>Arcp</title>
<path fill="#3b82f6" stroke="#2563eb" stroke-width="1.4" d="M72.56,-248.45C72.56,-248.45 40.13,-248.45 40.13,-248.45 34.13,-248.45 28.13,-242.45 28.13,-236.45 28.13,-236.45 28.13,-224.45 28.13,-224.45 28.13,-218.45 34.13,-212.45 40.13,-212.45 40.13,-212.45 72.56,-212.45 72.56,-212.45 78.56,-212.45 84.56,-218.45 84.56,-224.45 84.56,-224.45 84.56,-236.45 84.56,-236.45 84.56,-242.45 78.56,-248.45 72.56,-248.45"/>
<text xml:space="preserve" text-anchor="start" x="43.97" y="-227.55" font-family="TT Commons Pro Trial" font-weight="bold" font-size="12.00" fill="white">Arcp</text>
</g>
<!-- Client -->
<g id="node3" class="node">
<title>Client</title>
<path fill="#334155" stroke="#475569" d="M233.11,-265.45C233.11,-265.45 173.68,-265.45 173.68,-265.45 167.68,-265.45 161.68,-259.45 161.68,-253.45 161.68,-253.45 161.68,-241.45 161.68,-241.45 161.68,-235.45 167.68,-229.45 173.68,-229.45 173.68,-229.45 233.11,-229.45 233.11,-229.45 239.11,-229.45 245.11,-235.45 245.11,-241.45 245.11,-241.45 245.11,-253.45 245.11,-253.45 245.11,-259.45 239.11,-265.45 233.11,-265.45"/>
<text xml:space="preserve" text-anchor="middle" x="203.4" y="-244.12" font-family="TT Commons Pro Trial" font-size="11.00" fill="#f1f5f9">Arcp.Client</text>
</g>
<!-- Arcp&#45;&gt;Client -->
<g id="edge1" class="edge">
<title>Arcp&#45;&gt;Client</title>
<path fill="none" stroke="#94a3b8" stroke-width="1.2" d="M84.97,-233.69C104.05,-235.92 129.97,-238.96 152.61,-241.61"/>
<polygon fill="#94a3b8" stroke="#94a3b8" stroke-width="1.2" points="159.97,-242.48 152.13,-244.96 157.69,-242.31 152.51,-241.7 152.53,-241.6 152.54,-241.5 157.71,-242.11 152.92,-238.25 159.97,-242.48"/>
</g>
<!-- Runtime -->
<g id="node4" class="node">
<title>Runtime</title>
<path fill="#334155" stroke="#475569" d="M239.11,-131.45C239.11,-131.45 167.68,-131.45 167.68,-131.45 161.68,-131.45 155.68,-125.45 155.68,-119.45 155.68,-119.45 155.68,-107.45 155.68,-107.45 155.68,-101.45 161.68,-95.45 167.68,-95.45 167.68,-95.45 239.11,-95.45 239.11,-95.45 245.11,-95.45 251.11,-101.45 251.11,-107.45 251.11,-107.45 251.11,-119.45 251.11,-119.45 251.11,-125.45 245.11,-131.45 239.11,-131.45"/>
<text xml:space="preserve" text-anchor="middle" x="203.4" y="-110.12" font-family="TT Commons Pro Trial" font-size="11.00" fill="#f1f5f9">Arcp.Runtime</text>
</g>
<!-- Arcp&#45;&gt;Runtime -->
<g id="edge2" class="edge">
<title>Arcp&#45;&gt;Runtime</title>
<path fill="none" stroke="#94a3b8" stroke-width="1.2" d="M80.32,-211.91C105.36,-191.71 145.49,-159.34 172.85,-137.28"/>
<polygon fill="#94a3b8" stroke="#94a3b8" stroke-width="1.2" points="178.38,-132.82 174.66,-140.15 176.66,-134.33 172.61,-137.61 172.54,-137.53 172.48,-137.45 176.54,-134.18 170.42,-134.9 178.38,-132.82"/>
</g>
<!-- Core -->
<g id="node2" class="node">
<title>Core</title>
<path fill="#f59e0b" stroke="#d97706" stroke-width="1.4" d="M366.29,-131.45C366.29,-131.45 306.11,-131.45 306.11,-131.45 300.11,-131.45 294.11,-125.45 294.11,-119.45 294.11,-119.45 294.11,-107.45 294.11,-107.45 294.11,-101.45 300.11,-95.45 306.11,-95.45 306.11,-95.45 366.29,-95.45 366.29,-95.45 372.29,-95.45 378.29,-101.45 378.29,-107.45 378.29,-107.45 378.29,-119.45 378.29,-119.45 378.29,-125.45 372.29,-131.45 366.29,-131.45"/>
<text xml:space="preserve" text-anchor="start" x="309.95" y="-110.55" font-family="TT Commons Pro Trial" font-weight="bold" font-size="12.00" fill="white">Arcp.Core</text>
</g>
<!-- Client&#45;&gt;Core -->
<g id="edge3" class="edge">
<title>Client&#45;&gt;Core</title>
<path fill="none" stroke="#475569" d="M225.73,-229.06C233.84,-221.87 243.06,-213.44 251.11,-205.45 273.33,-183.41 297.29,-156.9 313.93,-138.01"/>
<polygon fill="#475569" stroke="#475569" points="318.47,-132.83 316.06,-140.7 316.8,-134.74 313.52,-138.47 313.52,-138.47 313.52,-138.47 316.8,-134.74 310.99,-136.25 318.47,-132.83"/>
</g>
<!-- Runtime&#45;&gt;Core -->
<g id="edge4" class="edge">
<title>Runtime&#45;&gt;Core</title>
<path fill="none" stroke="#475569" d="M251.25,-113.45C262.12,-113.45 273.74,-113.45 284.77,-113.45"/>
<polygon fill="#475569" stroke="#475569" points="292.23,-113.45 284.73,-116.82 289.7,-113.45 284.73,-113.45 284.73,-113.45 284.73,-113.45 289.7,-113.45 284.73,-110.07 292.23,-113.45"/>
</g>
<!-- AspNetCore -->
<g id="node5" class="node">
<title>AspNetCore</title>
<path fill="#334155" stroke="#475569" d="M100.68,-164.45C100.68,-164.45 12,-164.45 12,-164.45 6,-164.45 0,-158.45 0,-152.45 0,-152.45 0,-140.45 0,-140.45 0,-134.45 6,-128.45 12,-128.45 12,-128.45 100.68,-128.45 100.68,-128.45 106.68,-128.45 112.68,-134.45 112.68,-140.45 112.68,-140.45 112.68,-152.45 112.68,-152.45 112.68,-158.45 106.68,-164.45 100.68,-164.45"/>
<text xml:space="preserve" text-anchor="middle" x="56.34" y="-143.12" font-family="TT Commons Pro Trial" font-size="11.00" fill="#f1f5f9">Arcp.AspNetCore</text>
</g>
<!-- AspNetCore&#45;&gt;Core -->
<g id="edge6" class="edge">
<title>AspNetCore&#45;&gt;Core</title>
<path fill="none" stroke="#475569" d="M113,-152.48C152.03,-155.31 205.21,-156.38 251.11,-147.45 264.17,-144.91 277.77,-140.34 290.13,-135.36"/>
<polygon fill="#475569" stroke="#475569" points="296.93,-132.52 291.31,-138.52 294.59,-133.49 290.01,-135.41 290.01,-135.41 290.01,-135.41 294.59,-133.49 288.71,-132.3 296.93,-132.52"/>
</g>
<!-- AspNetCore&#45;&gt;Runtime -->
<g id="edge5" class="edge">
<title>AspNetCore&#45;&gt;Runtime</title>
<path fill="none" stroke="#475569" d="M113.01,-133.78C124.21,-131.24 135.99,-128.56 147.18,-126.01"/>
<polygon fill="#475569" stroke="#475569" points="154.41,-124.36 147.85,-129.32 151.94,-124.93 147.1,-126.03 147.1,-126.03 147.1,-126.03 151.94,-124.93 146.35,-122.74 154.41,-124.36"/>
</g>
<!-- Otel -->
<g id="node6" class="node">
<title>Otel</title>
<path fill="#334155" stroke="#475569" d="M229.36,-63.45C229.36,-63.45 177.43,-63.45 177.43,-63.45 171.43,-63.45 165.43,-57.45 165.43,-51.45 165.43,-51.45 165.43,-39.45 165.43,-39.45 165.43,-33.45 171.43,-27.45 177.43,-27.45 177.43,-27.45 229.36,-27.45 229.36,-27.45 235.36,-27.45 241.36,-33.45 241.36,-39.45 241.36,-39.45 241.36,-51.45 241.36,-51.45 241.36,-57.45 235.36,-63.45 229.36,-63.45"/>
<text xml:space="preserve" text-anchor="middle" x="203.4" y="-42.12" font-family="TT Commons Pro Trial" font-size="11.00" fill="#f1f5f9">Arcp.Otel</text>
</g>
<!-- Otel&#45;&gt;Core -->
<g id="edge7" class="edge">
<title>Otel&#45;&gt;Core</title>
<path fill="none" stroke="#475569" d="M239.79,-63.85C255.8,-72.17 274.87,-82.09 291.74,-90.86"/>
<polygon fill="#475569" stroke="#475569" points="298.24,-94.23 290.03,-93.77 295.99,-93.07 291.58,-90.77 291.58,-90.77 291.58,-90.77 295.99,-93.07 293.14,-87.78 298.24,-94.23"/>
</g>
<!-- Hosting -->
<g id="node7" class="node">
<title>Hosting</title>
<path fill="#334155" stroke="#475569" d="M90.18,-63.45C90.18,-63.45 22.5,-63.45 22.5,-63.45 16.5,-63.45 10.5,-57.45 10.5,-51.45 10.5,-51.45 10.5,-39.45 10.5,-39.45 10.5,-33.45 16.5,-27.45 22.5,-27.45 22.5,-27.45 90.18,-27.45 90.18,-27.45 96.18,-27.45 102.18,-33.45 102.18,-39.45 102.18,-39.45 102.18,-51.45 102.18,-51.45 102.18,-57.45 96.18,-63.45 90.18,-63.45"/>
<text xml:space="preserve" text-anchor="middle" x="56.34" y="-42.12" font-family="TT Commons Pro Trial" font-size="11.00" fill="#f1f5f9">Arcp.Hosting</text>
</g>
<!-- Hosting&#45;&gt;Core -->
<g id="edge9" class="edge">
<title>Hosting&#45;&gt;Core</title>
<path fill="none" stroke="#475569" d="M92.97,-26.99C133.18,-8.87 199.68,12.81 251.11,-11.45 284.08,-27 308.5,-62.51 322.3,-87.23"/>
<polygon fill="#475569" stroke="#475569" points="325.82,-93.77 319.29,-88.77 324.62,-91.54 322.26,-87.17 322.26,-87.17 322.26,-87.17 324.62,-91.54 325.23,-85.56 325.82,-93.77"/>
</g>
<!-- Hosting&#45;&gt;Runtime -->
<g id="edge8" class="edge">
<title>Hosting&#45;&gt;Runtime</title>
<path fill="none" stroke="#475569" d="M96.59,-63.85C114.73,-72.35 136.42,-82.52 155.42,-91.43"/>
<polygon fill="#475569" stroke="#475569" points="162.01,-94.51 153.78,-94.39 159.71,-93.44 155.22,-91.33 155.22,-91.33 155.22,-91.33 159.71,-93.44 156.65,-88.28 162.01,-94.51"/>
</g>
</g>
</svg>
