<?xml version="1.0" encoding="UTF-8" standalone="no"?>
<!DOCTYPE svg PUBLIC "-//W3C//DTD SVG 1.1//EN"
 "http://www.w3.org/Graphics/SVG/1.1/DTD/svg11.dtd">
<!-- Generated by graphviz version 14.1.5 (20260411.2331)
 -->
<!-- Title: HeartbeatAck Pages: 1 -->
<svg width="679pt" height="401pt"
 viewBox="0.00 0.00 679.00 401.00" xmlns="http://www.w3.org/2000/svg" xmlns:xlink="http://www.w3.org/1999/xlink">
<g id="graph0" class="graph" transform="scale(1 1) rotate(0) translate(25.2 382.5)">
<title>HeartbeatAck</title>
<!-- Client -->
<g id="node1" class="node">
<title>Client</title>
<path fill="#3b82f6" stroke="#2563eb" stroke-width="1.4" d="M126.16,-364.5C126.16,-364.5 85.48,-364.5 85.48,-364.5 79.48,-364.5 73.48,-358.5 73.48,-352.5 73.48,-352.5 73.48,-340.5 73.48,-340.5 73.48,-334.5 79.48,-328.5 85.48,-328.5 85.48,-328.5 126.16,-328.5 126.16,-328.5 132.16,-328.5 138.16,-334.5 138.16,-340.5 138.16,-340.5 138.16,-352.5 138.16,-352.5 138.16,-358.5 132.16,-364.5 126.16,-364.5"/>
<text xml:space="preserve" text-anchor="start" x="89.32" y="-342.48" font-family="Helvetica,sans-Serif" font-weight="bold" font-size="12.00" fill="white">Client</text>
</g>
<!-- Runtime -->
<g id="node2" class="node">
<title>Runtime</title>
<path fill="white" stroke="#cbd5e1" d="M239.91,-364.5C239.91,-364.5 191.73,-364.5 191.73,-364.5 185.73,-364.5 179.73,-358.5 179.73,-352.5 179.73,-352.5 179.73,-340.5 179.73,-340.5 179.73,-334.5 185.73,-328.5 191.73,-328.5 191.73,-328.5 239.91,-328.5 239.91,-328.5 245.91,-328.5 251.91,-334.5 251.91,-340.5 251.91,-340.5 251.91,-352.5 251.91,-352.5 251.91,-358.5 245.91,-364.5 239.91,-364.5"/>
<text xml:space="preserve" text-anchor="middle" x="215.82" y="-342.05" font-family="Helvetica,sans-Serif" font-size="11.00" fill="#1f2937">Runtime</text>
</g>
<!-- Ping -->
<g id="node4" class="node">
<title>Ping</title>
<path fill="white" stroke="#cbd5e1" d="M443.78,-277.25C443.78,-277.25 277.85,-277.25 277.85,-277.25 271.85,-277.25 265.85,-271.25 265.85,-265.25 265.85,-265.25 265.85,-253.25 265.85,-253.25 265.85,-247.25 271.85,-241.25 277.85,-241.25 277.85,-241.25 443.78,-241.25 443.78,-241.25 449.78,-241.25 455.78,-247.25 455.78,-253.25 455.78,-253.25 455.78,-265.25 455.78,-265.25 455.78,-271.25 449.78,-277.25 443.78,-277.25"/>
<text xml:space="preserve" text-anchor="middle" x="360.82" y="-254.8" font-family="Helvetica,sans-Serif" font-size="11.00" fill="#1f2937">2: session.ping { nonce, sent_at }</text>
</g>
<!-- Runtime&#45;&gt;Ping -->
<g id="edge2" class="edge">
<title>Runtime&#45;&gt;Ping</title>
<path fill="none" stroke="#94a3b8" stroke-width="1.1" d="M245.51,-328.04C268.09,-314.77 299.3,-296.42 323.55,-282.16"/>
<polygon fill="#94a3b8" stroke="#94a3b8" stroke-width="1.1" points="330.01,-278.36 325.25,-285.07 327.96,-279.63 323.57,-282.21 323.54,-282.16 323.52,-282.12 327.9,-279.54 321.83,-279.26 330.01,-278.36"/>
<text xml:space="preserve" text-anchor="middle" x="310.5" y="-299.95" font-family="Helvetica,sans-Serif" font-size="9.00" fill="#64748b">R → C</text>
</g>
<!-- Idle -->
<g id="node3" class="node">
<title>Idle</title>
<path fill="#f8fafc" stroke="#cbd5e1" stroke-dasharray="5,2" d="M616.53,-364.5C616.53,-364.5 287.1,-364.5 287.1,-364.5 281.1,-364.5 275.1,-358.5 275.1,-352.5 275.1,-352.5 275.1,-340.5 275.1,-340.5 275.1,-334.5 281.1,-328.5 287.1,-328.5 287.1,-328.5 616.53,-328.5 616.53,-328.5 622.53,-328.5 628.53,-334.5 628.53,-340.5 628.53,-340.5 628.53,-352.5 628.53,-352.5 628.53,-358.5 622.53,-364.5 616.53,-364.5"/>
<text xml:space="preserve" text-anchor="middle" x="451.82" y="-342.05" font-family="Helvetica,sans-Serif" font-size="11.00" fill="#475569">1: idle for heartbeat_interval_sec\n(advertised on session.welcome)</text>
</g>
<!-- Idle&#45;&gt;Ping -->
<!-- Pong -->
<g id="node5" class="node">
<title>Pong</title>
<path fill="white" stroke="#cbd5e1" d="M412.16,-190C412.16,-190 59.48,-190 59.48,-190 53.48,-190 47.48,-184 47.48,-178 47.48,-178 47.48,-166 47.48,-166 47.48,-160 53.48,-154 59.48,-154 59.48,-154 412.16,-154 412.16,-154 418.16,-154 424.16,-160 424.16,-166 424.16,-166 424.16,-178 424.16,-178 424.16,-184 418.16,-190 412.16,-190"/>
<text xml:space="preserve" text-anchor="middle" x="235.82" y="-167.55" font-family="Helvetica,sans-Serif" font-size="11.00" fill="#1f2937">3: session.pong { ping_nonce, received_at }\n(not counted in event_seq)</text>
</g>
<!-- Ping&#45;&gt;Pong -->
<!-- Pong&#45;&gt;Runtime -->
<g id="edge4" class="edge">
<title>Pong&#45;&gt;Runtime</title>
<path fill="none" stroke="#94a3b8" stroke-width="1.1" d="M233.77,-190.39C232.15,-204.18 229.83,-223.95 227.82,-241.25 224.72,-267.89 221.22,-298.37 218.8,-319.46"/>
<polygon fill="#94a3b8" stroke="#94a3b8" stroke-width="1.1" points="217.95,-326.83 215.45,-318.99 218.18,-324.43 218.76,-319.37 218.81,-319.38 218.86,-319.38 218.28,-324.44 222.16,-319.76 217.95,-326.83"/>
<text xml:space="preserve" text-anchor="middle" x="241.32" y="-256.32" font-family="Helvetica,sans-Serif" font-size="9.00" fill="#64748b">C → R</text>
</g>
<!-- Ack -->
<g id="node6" class="node">
<title>Ack</title>
<path fill="white" stroke="#cbd5e1" d="M329.28,-113C329.28,-113 142.35,-113 142.35,-113 136.35,-113 130.35,-107 130.35,-101 130.35,-101 130.35,-89 130.35,-89 130.35,-83 136.35,-77 142.35,-77 142.35,-77 329.28,-77 329.28,-77 335.28,-77 341.28,-83 341.28,-89 341.28,-89 341.28,-101 341.28,-101 341.28,-107 335.28,-113 329.28,-113"/>
<text xml:space="preserve" text-anchor="middle" x="235.82" y="-90.55" font-family="Helvetica,sans-Serif" font-size="11.00" fill="#1f2937">4: session.ack { last_processed_seq }</text>
</g>
<!-- Pong&#45;&gt;Ack -->
<!-- Ack&#45;&gt;Runtime -->
<g id="edge6" class="edge">
<title>Ack&#45;&gt;Runtime</title>
<path fill="none" stroke="#f472b6" stroke-width="1.1" stroke-dasharray="5,2" d="M341.64,-107.43C375.22,-115.72 410.23,-129.88 435.82,-154 452.86,-170.07 491.6,-245.44 466.82,-277.25 409.63,-350.66 352.88,-301.55 263.82,-328.5 262.77,-328.82 261.71,-329.14 260.65,-329.48"/>
<polygon fill="#f472b6" stroke="#f472b6" stroke-width="1.1" points="253.66,-331.74 259.76,-326.22 255.94,-330.95 260.78,-329.38 260.8,-329.43 260.81,-329.47 255.97,-331.04 261.84,-332.64 253.66,-331.74"/>
<text xml:space="preserve" text-anchor="middle" x="483.79" y="-212.7" font-family="Helvetica,sans-Serif" font-size="9.00" fill="#db2777">C → R</text>
</g>
<!-- Back -->
<g id="node7" class="node">
<title>Back</title>
<path fill="white" stroke="#cbd5e1" d="M382.53,-36C382.53,-36 89.1,-36 89.1,-36 83.1,-36 77.1,-30 77.1,-24 77.1,-24 77.1,-12 77.1,-12 77.1,-6 83.1,0 89.1,0 89.1,0 382.53,0 382.53,0 388.53,0 394.53,-6 394.53,-12 394.53,-12 394.53,-24 394.53,-24 394.53,-30 388.53,-36 382.53,-36"/>
<text xml:space="preserve" text-anchor="middle" x="235.82" y="-13.55" font-family="Helvetica,sans-Serif" font-size="11.00" fill="#1f2937">5: status { phase: \&quot;back_pressure\&quot; }\nwhen lag &gt; threshold</text>
</g>
<!-- Ack&#45;&gt;Back -->
<!-- Back&#45;&gt;Client -->
<g id="edge8" class="edge">
<title>Back&#45;&gt;Client</title>
<path fill="none" stroke="#f472b6" stroke-width="1.1" stroke-dasharray="5,2" d="M171.68,-36.48C116.7,-55.35 41.37,-91.47 8.82,-154 -22.58,-214.31 40.04,-285.92 78.62,-322.09"/>
<polygon fill="#f472b6" stroke="#f472b6" stroke-width="1.1" points="84.06,-327.1 76.26,-324.51 82.25,-325.51 78.51,-322.06 78.54,-322.02 78.57,-321.99 82.32,-325.43 80.83,-319.54 84.06,-327.1"/>
<text xml:space="preserve" text-anchor="middle" x="22.32" y="-169.07" font-family="Helvetica,sans-Serif" font-size="9.00" fill="#db2777">R → C</text>
</g>
</g>
</svg>
