<?xml version="1.0" encoding="UTF-8" standalone="no"?>
<!DOCTYPE svg PUBLIC "-//W3C//DTD SVG 1.1//EN"
 "http://www.w3.org/Graphics/SVG/1.1/DTD/svg11.dtd">
<!-- Generated by graphviz version 14.1.5 (20260411.2331)
 -->
<!-- Title: HeartbeatAck Pages: 1 -->
<svg width="649pt" height="401pt"
 viewBox="0.00 0.00 649.00 401.00" xmlns="http://www.w3.org/2000/svg" xmlns:xlink="http://www.w3.org/1999/xlink">
<g id="graph0" class="graph" transform="scale(1 1) rotate(0) translate(25.2 382.5)">
<title>HeartbeatAck</title>
<!-- Client -->
<g id="node1" class="node">
<title>Client</title>
<path fill="#3b82f6" stroke="#2563eb" stroke-width="1.4" d="M116.92,-364.5C116.92,-364.5 77.74,-364.5 77.74,-364.5 71.74,-364.5 65.74,-358.5 65.74,-352.5 65.74,-352.5 65.74,-340.5 65.74,-340.5 65.74,-334.5 71.74,-328.5 77.74,-328.5 77.74,-328.5 116.92,-328.5 116.92,-328.5 122.92,-328.5 128.92,-334.5 128.92,-340.5 128.92,-340.5 128.92,-352.5 128.92,-352.5 128.92,-358.5 122.92,-364.5 116.92,-364.5"/>
<text xml:space="preserve" text-anchor="start" x="81.58" y="-343.6" font-family="TT Commons Pro Trial" font-weight="bold" font-size="12.00" fill="white">Client</text>
</g>
<!-- Runtime -->
<g id="node2" class="node">
<title>Runtime</title>
<path fill="#334155" stroke="#475569" d="M229.04,-364.5C229.04,-364.5 181.61,-364.5 181.61,-364.5 175.61,-364.5 169.61,-358.5 169.61,-352.5 169.61,-352.5 169.61,-340.5 169.61,-340.5 169.61,-334.5 175.61,-328.5 181.61,-328.5 181.61,-328.5 229.04,-328.5 229.04,-328.5 235.04,-328.5 241.04,-334.5 241.04,-340.5 241.04,-340.5 241.04,-352.5 241.04,-352.5 241.04,-358.5 235.04,-364.5 229.04,-364.5"/>
<text xml:space="preserve" text-anchor="middle" x="205.33" y="-343.18" font-family="TT Commons Pro Trial" font-size="11.00" fill="#f1f5f9">Runtime</text>
</g>
<!-- Ping -->
<g id="node4" class="node">
<title>Ping</title>
<path fill="#334155" stroke="#475569" d="M420.67,-277.25C420.67,-277.25 265.99,-277.25 265.99,-277.25 259.99,-277.25 253.99,-271.25 253.99,-265.25 253.99,-265.25 253.99,-253.25 253.99,-253.25 253.99,-247.25 259.99,-241.25 265.99,-241.25 265.99,-241.25 420.67,-241.25 420.67,-241.25 426.67,-241.25 432.67,-247.25 432.67,-253.25 432.67,-253.25 432.67,-265.25 432.67,-265.25 432.67,-271.25 426.67,-277.25 420.67,-277.25"/>
<text xml:space="preserve" text-anchor="middle" x="343.33" y="-255.93" font-family="TT Commons Pro Trial" font-size="11.00" fill="#f1f5f9">2: session.ping { nonce, sent_at }</text>
</g>
<!-- Runtime&#45;&gt;Ping -->
<g id="edge2" class="edge">
<title>Runtime&#45;&gt;Ping</title>
<path fill="none" stroke="#64748b" stroke-width="1.1" d="M233.59,-328.04C255.08,-314.77 284.78,-296.42 307.86,-282.16"/>
<polygon fill="#64748b" stroke="#64748b" stroke-width="1.1" points="313.97,-278.39 309.36,-285.2 311.94,-279.7 307.61,-282.37 307.59,-282.33 307.56,-282.29 311.89,-279.61 305.81,-279.46 313.97,-278.39"/>
<text xml:space="preserve" text-anchor="middle" x="295.34" y="-299.95" font-family="TT Commons Pro Trial" font-size="9.00" fill="#94a3b8">R → C</text>
</g>
<!-- Idle -->
<g id="node3" class="node">
<title>Idle</title>
<path fill="#1e293b" stroke="#475569" stroke-dasharray="5,2" d="M586.67,-364.5C586.67,-364.5 275.99,-364.5 275.99,-364.5 269.99,-364.5 263.99,-358.5 263.99,-352.5 263.99,-352.5 263.99,-340.5 263.99,-340.5 263.99,-334.5 269.99,-328.5 275.99,-328.5 275.99,-328.5 586.67,-328.5 586.67,-328.5 592.67,-328.5 598.67,-334.5 598.67,-340.5 598.67,-340.5 598.67,-352.5 598.67,-352.5 598.67,-358.5 592.67,-364.5 586.67,-364.5"/>
<text xml:space="preserve" text-anchor="middle" x="431.33" y="-343.18" font-family="TT Commons Pro Trial" font-size="11.00" fill="#94a3b8">1: idle for heartbeat_interval_sec\n(advertised on session.welcome)</text>
</g>
<!-- Idle&#45;&gt;Ping -->
<!-- Pong -->
<g id="node5" class="node">
<title>Pong</title>
<path fill="#334155" stroke="#475569" d="M391.29,-190C391.29,-190 57.36,-190 57.36,-190 51.36,-190 45.36,-184 45.36,-178 45.36,-178 45.36,-166 45.36,-166 45.36,-160 51.36,-154 57.36,-154 57.36,-154 391.29,-154 391.29,-154 397.29,-154 403.29,-160 403.29,-166 403.29,-166 403.29,-178 403.29,-178 403.29,-184 397.29,-190 391.29,-190"/>
<text xml:space="preserve" text-anchor="middle" x="224.33" y="-168.68" font-family="TT Commons Pro Trial" font-size="11.00" fill="#f1f5f9">3: session.pong { ping_nonce, received_at }\n(not counted in event_seq)</text>
</g>
<!-- Ping&#45;&gt;Pong -->
<!-- Pong&#45;&gt;Runtime -->
<g id="edge4" class="edge">
<title>Pong&#45;&gt;Runtime</title>
<path fill="none" stroke="#64748b" stroke-width="1.1" d="M222.43,-190.28C219.08,-220.69 212.11,-283.91 208.19,-319.57"/>
<polygon fill="#64748b" stroke="#64748b" stroke-width="1.1" points="207.4,-326.68 204.87,-318.85 207.62,-324.28 208.17,-319.22 208.22,-319.22 208.27,-319.23 207.72,-324.29 211.58,-319.59 207.4,-326.68"/>
<text xml:space="preserve" text-anchor="middle" x="229.47" y="-256.32" font-family="TT Commons Pro Trial" font-size="9.00" fill="#94a3b8">C → R</text>
</g>
<!-- Ack -->
<g id="node6" class="node">
<title>Ack</title>
<path fill="#334155" stroke="#475569" d="M309.54,-113C309.54,-113 139.11,-113 139.11,-113 133.11,-113 127.11,-107 127.11,-101 127.11,-101 127.11,-89 127.11,-89 127.11,-83 133.11,-77 139.11,-77 139.11,-77 309.54,-77 309.54,-77 315.54,-77 321.54,-83 321.54,-89 321.54,-89 321.54,-101 321.54,-101 321.54,-107 315.54,-113 309.54,-113"/>
<text xml:space="preserve" text-anchor="middle" x="224.33" y="-91.67" font-family="TT Commons Pro Trial" font-size="11.00" fill="#f1f5f9">4: session.ack { last_processed_seq }</text>
</g>
<!-- Pong&#45;&gt;Ack -->
<!-- Ack&#45;&gt;Runtime -->
<g id="edge6" class="edge">
<title>Ack&#45;&gt;Runtime</title>
<path fill="none" stroke="#f472b6" stroke-width="1.1" stroke-dasharray="5,2" d="M321.88,-107.55C354.76,-115.81 389.4,-129.92 414.33,-154 431,-170.1 468.47,-245.82 444.33,-277.25 390.53,-347.29 336.6,-302.07 252.33,-328.5 251.44,-328.78 250.54,-329.06 249.64,-329.36"/>
<polygon fill="#f472b6" stroke="#f472b6" stroke-width="1.1" points="242.67,-331.67 248.73,-326.1 244.95,-330.87 249.78,-329.26 249.79,-329.3 249.81,-329.35 244.98,-330.96 250.86,-332.51 242.67,-331.67"/>
<text xml:space="preserve" text-anchor="middle" x="460.57" y="-212.7" font-family="TT Commons Pro Trial" font-size="9.00" fill="#f472b6">C → R</text>
</g>
<!-- Back -->
<g id="node7" class="node">
<title>Back</title>
<path fill="#334155" stroke="#475569" d="M362.04,-36C362.04,-36 86.61,-36 86.61,-36 80.61,-36 74.61,-30 74.61,-24 74.61,-24 74.61,-12 74.61,-12 74.61,-6 80.61,0 86.61,0 86.61,0 362.04,0 362.04,0 368.04,0 374.04,-6 374.04,-12 374.04,-12 374.04,-24 374.04,-24 374.04,-30 368.04,-36 362.04,-36"/>
<text xml:space="preserve" text-anchor="middle" x="224.33" y="-14.68" font-family="TT Commons Pro Trial" font-size="11.00" fill="#f1f5f9">5: status { phase: \&quot;back_pressure\&quot; }\nwhen lag &gt; threshold</text>
</g>
<!-- Ack&#45;&gt;Back -->
<!-- Back&#45;&gt;Client -->
<g id="edge8" class="edge">
<title>Back&#45;&gt;Client</title>
<path fill="none" stroke="#f472b6" stroke-width="1.1" stroke-dasharray="5,2" d="M166.22,-36.45C113.81,-55.72 40.27,-92.48 8.83,-154 -21.58,-213.5 36.31,-285.46 72.08,-321.89"/>
<polygon fill="#f472b6" stroke="#f472b6" stroke-width="1.1" points="77.1,-326.9 69.4,-323.99 75.36,-325.24 71.75,-321.64 71.79,-321.6 71.83,-321.57 75.43,-325.17 74.17,-319.22 77.1,-326.9"/>
<text xml:space="preserve" text-anchor="middle" x="21.58" y="-169.07" font-family="TT Commons Pro Trial" font-size="9.00" fill="#f472b6">R → C</text>
</g>
</g>
</svg>
