<?xml version="1.0" encoding="UTF-8" standalone="no"?>
<!DOCTYPE svg PUBLIC "-//W3C//DTD SVG 1.1//EN"
 "http://www.w3.org/Graphics/SVG/1.1/DTD/svg11.dtd">
<!-- Generated by graphviz version 14.1.5 (20260411.2331)
 -->
<!-- Title: ResultChunkProgress Pages: 1 -->
<svg width="1216pt" height="620pt"
 viewBox="0.00 0.00 1216.00 620.00" xmlns="http://www.w3.org/2000/svg" xmlns:xlink="http://www.w3.org/1999/xlink">
<g id="graph0" class="graph" transform="scale(1 1) rotate(0) translate(25.2 601.75)">
<title>ResultChunkProgress</title>
<g id="clust2" class="cluster">
<title>cluster_csharp</title>
<path fill="#1e293b" stroke="#334155" d="M617.09,-480.75C617.09,-480.75 1146.09,-480.75 1146.09,-480.75 1152.09,-480.75 1158.09,-486.75 1158.09,-492.75 1158.09,-492.75 1158.09,-563.75 1158.09,-563.75 1158.09,-569.75 1152.09,-575.75 1146.09,-575.75 1146.09,-575.75 617.09,-575.75 617.09,-575.75 611.09,-575.75 605.09,-569.75 605.09,-563.75 605.09,-563.75 605.09,-492.75 605.09,-492.75 605.09,-486.75 611.09,-480.75 617.09,-480.75"/>
<text xml:space="preserve" text-anchor="start" x="621.09" y="-553.35" font-family="TT Commons Pro Trial" font-weight="bold" font-size="12.00" fill="#94a3b8">Client&#45;side C#</text>
</g>
<!-- Client -->
<g id="node1" class="node">
<title>Client</title>
<path fill="#3b82f6" stroke="#2563eb" stroke-width="1.4" d="M524.68,-530.75C524.68,-530.75 485.5,-530.75 485.5,-530.75 479.5,-530.75 473.5,-524.75 473.5,-518.75 473.5,-518.75 473.5,-506.75 473.5,-506.75 473.5,-500.75 479.5,-494.75 485.5,-494.75 485.5,-494.75 524.68,-494.75 524.68,-494.75 530.68,-494.75 536.68,-500.75 536.68,-506.75 536.68,-506.75 536.68,-518.75 536.68,-518.75 536.68,-524.75 530.68,-530.75 524.68,-530.75"/>
<text xml:space="preserve" text-anchor="start" x="489.34" y="-509.85" font-family="TT Commons Pro Trial" font-weight="bold" font-size="12.00" fill="white">Client</text>
</g>
<!-- M1 -->
<g id="node3" class="node">
<title>M1</title>
<path fill="#334155" stroke="#475569" d="M144.18,-441.5C144.18,-441.5 12,-441.5 12,-441.5 6,-441.5 0,-435.5 0,-429.5 0,-429.5 0,-417.5 0,-417.5 0,-411.5 6,-405.5 12,-405.5 12,-405.5 144.18,-405.5 144.18,-405.5 150.18,-405.5 156.18,-411.5 156.18,-417.5 156.18,-417.5 156.18,-429.5 156.18,-429.5 156.18,-435.5 150.18,-441.5 144.18,-441.5"/>
<text xml:space="preserve" text-anchor="middle" x="78.09" y="-420.18" font-family="TT Commons Pro Trial" font-size="11.00" fill="#f1f5f9">1: job.submit { agent, input }</text>
</g>
<!-- Client&#45;&gt;M1 -->
<!-- Runtime -->
<g id="node2" class="node">
<title>Runtime</title>
<path fill="#334155" stroke="#475569" d="M158.81,-530.75C158.81,-530.75 111.38,-530.75 111.38,-530.75 105.38,-530.75 99.38,-524.75 99.38,-518.75 99.38,-518.75 99.38,-506.75 99.38,-506.75 99.38,-500.75 105.38,-494.75 111.38,-494.75 111.38,-494.75 158.81,-494.75 158.81,-494.75 164.81,-494.75 170.81,-500.75 170.81,-506.75 170.81,-506.75 170.81,-518.75 170.81,-518.75 170.81,-524.75 164.81,-530.75 158.81,-530.75"/>
<text xml:space="preserve" text-anchor="middle" x="135.09" y="-509.43" font-family="TT Commons Pro Trial" font-size="11.00" fill="#f1f5f9">Runtime</text>
</g>
<!-- M2 -->
<g id="node4" class="node">
<title>M2</title>
<path fill="#334155" stroke="#475569" d="M339.06,-441.5C339.06,-441.5 191.13,-441.5 191.13,-441.5 185.13,-441.5 179.13,-435.5 179.13,-429.5 179.13,-429.5 179.13,-417.5 179.13,-417.5 179.13,-411.5 185.13,-405.5 191.13,-405.5 191.13,-405.5 339.06,-405.5 339.06,-405.5 345.06,-405.5 351.06,-411.5 351.06,-417.5 351.06,-417.5 351.06,-429.5 351.06,-429.5 351.06,-435.5 345.06,-441.5 339.06,-441.5"/>
<text xml:space="preserve" text-anchor="middle" x="265.09" y="-420.18" font-family="TT Commons Pro Trial" font-size="11.00" fill="#f1f5f9">2: job.accepted { job_id, lease }</text>
</g>
<!-- Runtime&#45;&gt;M2 -->
<!-- M1&#45;&gt;Runtime -->
<g id="edge2" class="edge">
<title>M1&#45;&gt;Runtime</title>
<path fill="none" stroke="#64748b" stroke-width="1.1" d="M89.33,-441.7C97.83,-454.72 109.62,-472.77 119.11,-487.29"/>
<polygon fill="#64748b" stroke="#64748b" stroke-width="1.1" points="123.1,-493.39 116.17,-488.96 121.74,-491.4 118.95,-487.14 118.99,-487.11 119.04,-487.08 121.82,-491.35 121.82,-485.27 123.1,-493.39"/>
<text xml:space="preserve" text-anchor="middle" x="121.05" y="-464.2" font-family="TT Commons Pro Trial" font-size="9.00" fill="#94a3b8">C → R</text>
</g>
<!-- M2&#45;&gt;Client -->
<g id="edge4" class="edge">
<title>M2&#45;&gt;Client</title>
<path fill="none" stroke="#64748b" stroke-width="1.1" d="M293.27,-441.97C310.48,-452.05 333.23,-464.37 354.59,-472.75 390.76,-486.95 433.85,-497.51 464.63,-504.04"/>
<polygon fill="#64748b" stroke="#64748b" stroke-width="1.1" points="471.66,-505.5 463.63,-507.28 469.29,-505.06 464.3,-504.02 464.31,-503.97 464.32,-503.92 469.31,-504.96 465,-500.67 471.66,-505.5"/>
<text xml:space="preserve" text-anchor="middle" x="367.34" y="-464.2" font-family="TT Commons Pro Trial" font-size="9.00" fill="#94a3b8">R → C</text>
</g>
<!-- M3a -->
<g id="node5" class="node">
<title>M3a</title>
<path fill="#334155" stroke="#475569" d="M457.68,-354.25C457.68,-354.25 154.5,-354.25 154.5,-354.25 148.5,-354.25 142.5,-348.25 142.5,-342.25 142.5,-342.25 142.5,-330.25 142.5,-330.25 142.5,-324.25 148.5,-318.25 154.5,-318.25 154.5,-318.25 457.68,-318.25 457.68,-318.25 463.68,-318.25 469.68,-324.25 469.68,-330.25 469.68,-330.25 469.68,-342.25 469.68,-342.25 469.68,-348.25 463.68,-354.25 457.68,-354.25"/>
<text xml:space="preserve" text-anchor="middle" x="306.09" y="-332.93" font-family="TT Commons Pro Trial" font-size="11.00" fill="#f1f5f9">3a: job.event kind=progress\n{ current, total?, units?, message? }</text>
</g>
<!-- M2&#45;&gt;M3a -->
<!-- M3a&#45;&gt;Client -->
<g id="edge6" class="edge">
<title>M3a&#45;&gt;Client</title>
<path fill="none" stroke="#64748b" stroke-width="1.1" d="M322.59,-354.43C348.57,-381.08 401.1,-433.43 450.09,-472.75 456.94,-478.25 464.49,-483.87 471.75,-489.07"/>
<polygon fill="#64748b" stroke="#64748b" stroke-width="1.1" points="477.79,-493.34 469.71,-491.76 475.79,-491.99 471.63,-489.05 471.66,-489.01 471.69,-488.97 475.85,-491.91 473.61,-486.25 477.79,-493.34"/>
<text xml:space="preserve" text-anchor="middle" x="423.82" y="-420.57" font-family="TT Commons Pro Trial" font-size="9.00" fill="#94a3b8">R → C</text>
</g>
<!-- M3b -->
<g id="node6" class="node">
<title>M3b</title>
<path fill="#334155" stroke="#475569" d="M563.18,-267C563.18,-267 173,-267 173,-267 167,-267 161,-261 161,-255 161,-255 161,-243 161,-243 161,-237 167,-231 173,-231 173,-231 563.18,-231 563.18,-231 569.18,-231 575.18,-237 575.18,-243 575.18,-243 575.18,-255 575.18,-255 575.18,-261 569.18,-267 563.18,-267"/>
<text xml:space="preserve" text-anchor="middle" x="368.09" y="-245.68" font-family="TT Commons Pro Trial" font-size="11.00" fill="#f1f5f9">3b: job.event kind=result_chunk\n{ result_id, chunk_seq, data, encoding, more: true }</text>
</g>
<!-- M3a&#45;&gt;M3b -->
<!-- ProgressApi -->
<g id="node11" class="node">
<title>ProgressApi</title>
<path fill="#334155" stroke="#475569" d="M1131.93,-530.75C1131.93,-530.75 896.25,-530.75 896.25,-530.75 890.25,-530.75 884.25,-524.75 884.25,-518.75 884.25,-518.75 884.25,-506.75 884.25,-506.75 884.25,-500.75 890.25,-494.75 896.25,-494.75 896.25,-494.75 1131.93,-494.75 1131.93,-494.75 1137.93,-494.75 1143.93,-500.75 1143.93,-506.75 1143.93,-506.75 1143.93,-518.75 1143.93,-518.75 1143.93,-524.75 1137.93,-530.75 1131.93,-530.75"/>
<text xml:space="preserve" text-anchor="middle" x="1014.09" y="-509.43" font-family="TT Commons Pro Trial" font-size="11.00" fill="#f1f5f9">ProgressBody body = ev.BodyAs&lt;ProgressBody&gt;()</text>
</g>
<!-- M3a&#45;&gt;ProgressApi -->
<g id="edge17" class="edge">
<title>M3a&#45;&gt;ProgressApi</title>
<path fill="none" stroke="#f472b6" stroke-width="1.1" stroke-dasharray="5,2" d="M340.43,-354.63C402.79,-385.18 539.65,-447.67 663.09,-472.75 754.62,-491.34 780.44,-468.9 873.09,-480.75 894.29,-483.46 917,-487.81 937.87,-492.39"/>
<polygon fill="#f472b6" stroke="#f472b6" stroke-width="1.1" points="945.08,-494.01 937.02,-495.66 942.72,-493.53 937.75,-492.42 937.76,-492.37 937.77,-492.32 942.74,-493.43 938.5,-489.07 945.08,-494.01"/>
</g>
<!-- M3b&#45;&gt;Client -->
<g id="edge8" class="edge">
<title>M3b&#45;&gt;Client</title>
<path fill="none" stroke="#64748b" stroke-width="1.1" d="M416.34,-267.38C439.71,-278.33 465.94,-294.89 481.09,-318.25 514.74,-370.13 512.59,-446.5 508.59,-485.99"/>
<polygon fill="#64748b" stroke="#64748b" stroke-width="1.1" points="507.82,-492.96 505.29,-485.13 508.03,-490.56 508.6,-485.5 508.65,-485.51 508.7,-485.51 508.13,-490.57 512,-485.88 507.82,-492.96"/>
<text xml:space="preserve" text-anchor="middle" x="518.46" y="-376.95" font-family="TT Commons Pro Trial" font-size="9.00" fill="#94a3b8">R → C</text>
</g>
<!-- M3c -->
<g id="node7" class="node">
<title>M3c</title>
<path fill="#334155" stroke="#475569" d="M670.93,-190C670.93,-190 537.25,-190 537.25,-190 531.25,-190 525.25,-184 525.25,-178 525.25,-178 525.25,-166 525.25,-166 525.25,-160 531.25,-154 537.25,-154 537.25,-154 670.93,-154 670.93,-154 676.93,-154 682.93,-160 682.93,-166 682.93,-166 682.93,-178 682.93,-178 682.93,-184 676.93,-190 670.93,-190"/>
<text xml:space="preserve" text-anchor="middle" x="604.09" y="-168.68" font-family="TT Commons Pro Trial" font-size="11.00" fill="#f1f5f9">3c: job.event kind=progress</text>
</g>
<!-- M3b&#45;&gt;M3c -->
<!-- AwaitForeach -->
<g id="node10" class="node">
<title>AwaitForeach</title>
<path fill="#334155" stroke="#475569" d="M849.31,-530.75C849.31,-530.75 630.88,-530.75 630.88,-530.75 624.88,-530.75 618.88,-524.75 618.88,-518.75 618.88,-518.75 618.88,-506.75 618.88,-506.75 618.88,-500.75 624.88,-494.75 630.88,-494.75 630.88,-494.75 849.31,-494.75 849.31,-494.75 855.31,-494.75 861.31,-500.75 861.31,-506.75 861.31,-506.75 861.31,-518.75 861.31,-518.75 861.31,-524.75 855.31,-530.75 849.31,-530.75"/>
<text xml:space="preserve" text-anchor="middle" x="740.09" y="-509.43" font-family="TT Commons Pro Trial" font-size="11.00" fill="#f1f5f9">await foreach (var chunk in handle.Chunks(ct))</text>
</g>
<!-- M3b&#45;&gt;AwaitForeach -->
<g id="edge15" class="edge">
<title>M3b&#45;&gt;AwaitForeach</title>
<path fill="none" stroke="#f472b6" stroke-width="1.1" stroke-dasharray="5,2" d="M432.66,-267.48C446.85,-272.68 461.41,-279.15 474.09,-287 574.21,-349.03 567.45,-404.02 663.09,-472.75 672.11,-479.23 682.36,-485.23 692.37,-490.48"/>
<polygon fill="#f472b6" stroke="#f472b6" stroke-width="1.1" points="698.76,-493.73 690.55,-493.34 696.59,-492.68 692.06,-490.37 692.08,-490.33 692.1,-490.28 696.64,-492.6 693.61,-487.32 698.76,-493.73"/>
</g>
<!-- M3c&#45;&gt;Client -->
<g id="edge10" class="edge">
<title>M3c&#45;&gt;Client</title>
<path fill="none" stroke="#64748b" stroke-width="1.1" d="M606.26,-190.25C607.97,-205.43 610.09,-228.15 610.09,-248 610.09,-424.5 610.09,-424.5 610.09,-424.5 610.09,-459.75 574.66,-483.49 544.96,-497.19"/>
<polygon fill="#64748b" stroke="#64748b" stroke-width="1.1" points="538.39,-500.09 543.89,-493.97 540.58,-499.07 545.23,-497.02 545.25,-497.06 545.27,-497.11 540.62,-499.16 546.61,-500.15 538.39,-500.09"/>
<text xml:space="preserve" text-anchor="middle" x="622.84" y="-333.32" font-family="TT Commons Pro Trial" font-size="9.00" fill="#94a3b8">R → C</text>
</g>
<!-- M3d -->
<g id="node8" class="node">
<title>M3d</title>
<path fill="#334155" stroke="#475569" d="M776.56,-113C776.56,-113 487.62,-113 487.62,-113 481.62,-113 475.62,-107 475.62,-101 475.62,-101 475.62,-89 475.62,-89 475.62,-83 481.62,-77 487.62,-77 487.62,-77 776.56,-77 776.56,-77 782.56,-77 788.56,-83 788.56,-89 788.56,-89 788.56,-101 788.56,-101 788.56,-107 782.56,-113 776.56,-113"/>
<text xml:space="preserve" text-anchor="middle" x="632.09" y="-91.67" font-family="TT Commons Pro Trial" font-size="11.00" fill="#f1f5f9">3d: job.event kind=result_chunk\n{ chunk_seq: N, more: false }</text>
</g>
<!-- M3c&#45;&gt;M3d -->
<!-- M3c&#45;&gt;ProgressApi -->
<g id="edge18" class="edge">
<title>M3c&#45;&gt;ProgressApi</title>
<path fill="none" stroke="#f472b6" stroke-width="1.1" stroke-dasharray="5,2" d="M614.52,-190.48C618.03,-196.58 621.86,-203.52 625.09,-210 663.01,-286.07 640.23,-326.16 701.09,-385.5 759.12,-442.09 845.83,-474.38 913.28,-492.12"/>
<polygon fill="#f472b6" stroke="#f472b6" stroke-width="1.1" points="920.53,-493.98 912.42,-495.38 918.18,-493.43 913.25,-492.16 913.26,-492.11 913.28,-492.06 918.21,-493.33 914.11,-488.84 920.53,-493.98"/>
</g>
<!-- M3d&#45;&gt;Client -->
<g id="edge12" class="edge">
<title>M3d&#45;&gt;Client</title>
<path fill="none" stroke="#64748b" stroke-width="1.1" d="M673.33,-113.48C695.4,-125.87 718.09,-144.95 718.09,-171 718.09,-424.5 718.09,-424.5 718.09,-424.5 718.09,-433.75 606.63,-475.27 544.97,-497.54"/>
<polygon fill="#64748b" stroke="#64748b" stroke-width="1.1" points="538.24,-499.96 544.15,-494.25 540.49,-499.1 545.28,-497.37 545.3,-497.42 545.31,-497.47 540.52,-499.19 546.44,-500.6 538.24,-499.96"/>
<text xml:space="preserve" text-anchor="middle" x="730.84" y="-289.7" font-family="TT Commons Pro Trial" font-size="9.00" fill="#94a3b8">R → C</text>
</g>
<!-- M4 -->
<g id="node9" class="node">
<title>M4</title>
<path fill="#334155" stroke="#475569" d="M837.81,-36C837.81,-36 616.38,-36 616.38,-36 610.38,-36 604.38,-30 604.38,-24 604.38,-24 604.38,-12 604.38,-12 604.38,-6 610.38,0 616.38,0 616.38,0 837.81,0 837.81,0 843.81,0 849.81,-6 849.81,-12 849.81,-12 849.81,-24 849.81,-24 849.81,-30 843.81,-36 837.81,-36"/>
<text xml:space="preserve" text-anchor="middle" x="727.09" y="-14.68" font-family="TT Commons Pro Trial" font-size="11.00" fill="#f1f5f9">4: job.result\n{ result_id, result_size, summary? }</text>
</g>
<!-- M3d&#45;&gt;M4 -->
<!-- M3d&#45;&gt;AwaitForeach -->
<g id="edge16" class="edge">
<title>M3d&#45;&gt;AwaitForeach</title>
<path fill="none" stroke="#f472b6" stroke-width="1.1" stroke-dasharray="5,2" d="M711.3,-113.46C720.45,-118.43 728.75,-124.81 735.09,-133 817.87,-240.04 770.81,-419.69 749.15,-486.08"/>
<polygon fill="#f472b6" stroke="#f472b6" stroke-width="1.1" points="746.83,-493.05 746,-484.87 747.54,-490.75 749.15,-485.92 749.2,-485.94 749.25,-485.95 747.64,-490.78 752.4,-487.01 746.83,-493.05"/>
</g>
<!-- M4&#45;&gt;Client -->
<g id="edge14" class="edge">
<title>M4&#45;&gt;Client</title>
<path fill="none" stroke="#64748b" stroke-width="1.1" d="M775.65,-36.48C799.46,-48.47 823.09,-67.14 823.09,-94 823.09,-424.5 823.09,-424.5 823.09,-424.5 823.09,-475.61 649.64,-468.22 600.09,-480.75 581.88,-485.35 562.08,-491.61 545.29,-497.3"/>
<polygon fill="#64748b" stroke="#64748b" stroke-width="1.1" points="538.58,-499.6 544.58,-493.97 540.84,-498.77 545.65,-497.12 545.67,-497.16 545.69,-497.21 540.87,-498.86 546.77,-500.36 538.58,-499.6"/>
<text xml:space="preserve" text-anchor="middle" x="835.84" y="-246.07" font-family="TT Commons Pro Trial" font-size="9.00" fill="#94a3b8">R → C</text>
</g>
</g>
</svg>
